<svg width="61" height="60" viewBox="0 0 61 60" fill="none" xmlns="http://www.w3.org/2000/svg">
<rect x="0.25" width="60" height="60" fill="#68B738"/>
<g clip-path="url(#clip0_95_18)">
<path d="M43.0938 16.767C42.9934 16.317 42.6147 16 42.1825 16C42.1806 16 42.1788 16 42.1769 16C37.2391 16.033 25.2316 16.916 20.3837 24.38C17.8656 28.258 17.6491 33.293 19.7397 39.345C19.7556 39.392 19.7884 39.424 19.81 39.467C19.0628 41.44 18.7731 42.753 18.7656 42.79C18.6569 43.33 18.9803 43.862 19.4866 43.978C19.5522 43.993 19.6178 44 19.6834 44C20.1156 44 20.5047 43.679 20.5994 43.21C20.6191 43.108 23.0078 32.837 31.4528 26.832C31.8841 26.526 32.0003 25.905 31.7125 25.445C31.4247 24.985 30.8434 24.86 30.4122 25.168C25.6234 28.573 22.6741 33.176 20.9397 36.824C19.6984 32.246 20.0237 28.447 21.9259 25.519C25.6694 19.755 34.5484 18.365 39.9081 18.071C38.755 19.872 37.495 23.174 37.495 29C37.495 32.12 36.6653 34.522 35.0303 36.14C32.4091 38.731 28.1509 38.974 25.0366 38.724C24.5191 38.679 24.07 39.095 24.0306 39.646C23.9912 40.196 24.3784 40.676 24.8941 40.718C25.5175 40.769 26.1831 40.8 26.875 40.8C30.0456 40.8 33.7441 40.137 36.3044 37.606C38.3388 35.595 39.37 32.7 39.37 29.001C39.37 19.902 42.5856 17.905 42.6016 17.896C42.9916 17.687 43.1959 17.219 43.0938 16.767Z" fill="white"/>
</g>
<defs>
<clipPath id="clip0_95_18">
<rect width="30" height="32" fill="white" transform="translate(15.25 14)"/>
</clipPath>
</defs>
</svg>
