<svg width="61" height="60" viewBox="0 0 61 60" fill="none" xmlns="http://www.w3.org/2000/svg">
<rect x="0.25" width="60" height="60" fill="#68B738"/>
<path fill-rule="evenodd" clip-rule="evenodd" d="M36.8673 15.0761C37.241 14.9214 37.6711 15.0069 37.9571 15.2929C38.8656 16.2014 40.0538 18.1706 41.0159 21.2108C41.9873 24.2804 42.75 28.5081 42.75 34C42.75 34.5523 42.3023 35 41.75 35H38.25V44C38.25 44.5523 37.8023 45 37.25 45C36.6977 45 36.25 44.5523 36.25 44V16C36.25 15.5956 36.4936 15.2309 36.8673 15.0761ZM38.25 33H40.7412C40.6553 28.1836 39.9551 24.4875 39.1091 21.8142C38.8307 20.9346 38.5385 20.1715 38.25 19.519V33Z" fill="white"/>
<path fill-rule="evenodd" clip-rule="evenodd" d="M24.25 15C24.8023 15 25.25 15.4477 25.25 16V44C25.25 44.5523 24.8023 45 24.25 45C23.6977 45 23.25 44.5523 23.25 44V16C23.25 15.4477 23.6977 15 24.25 15Z" fill="white"/>
<path fill-rule="evenodd" clip-rule="evenodd" d="M19.75 15C20.3023 15 20.75 15.4477 20.75 16V21.5C20.75 22.0569 20.942 22.8152 21.4509 23.4166C21.93 23.9828 22.7645 24.5 24.2499 24.5C24.8022 24.5 25.2499 24.9477 25.2499 25.5C25.2499 26.0523 24.8022 26.5 24.2499 26.5C22.2355 26.5 20.82 25.7672 19.9241 24.7084C19.058 23.6848 18.75 22.4431 18.75 21.5V16C18.75 15.4477 19.1977 15 19.75 15Z" fill="white"/>
<path fill-rule="evenodd" clip-rule="evenodd" d="M28.75 15C28.1977 15 27.75 15.4477 27.75 16V21.5C27.75 22.0569 27.558 22.8152 27.0491 23.4166C26.57 23.9828 25.7354 24.5 24.2499 24.5C23.6976 24.5 23.2501 24.9477 23.2501 25.5C23.2501 26.0523 23.6976 26.5 24.2499 26.5C26.2644 26.5 27.68 25.7672 28.5759 24.7084C29.442 23.6848 29.75 22.4431 29.75 21.5V16C29.75 15.4477 29.3023 15 28.75 15Z" fill="white"/>
</svg>
